<svg width="256" height="256" viewBox="0 0 256 256" fill="none" xmlns="http://www.w3.org/2000/svg">
<rect width="256" height="256" fill="white"/>
<path d="M106.392 96C102.543 79 85.4335 67 64.9023 67C37.0996 67 15 91.2857 15 122.143C15 152.857 37.2422 177 65.6152 177C84.8632 177 99.121 166.714 105.252 148.429L103.826 147.857C97.8378 165.571 84.1503 175.571 65.6152 175.571C43.373 175.571 32.1094 157.571 32.1094 122.143C32.1094 86.8571 43.0879 68.4286 64.1894 68.4286C78.5898 68.4286 87.4296 77.1429 92.1347 96H106.392Z" fill="black"/>
<path d="M119.238 174.143V175.571H148.182V174.143H132.498V71L173.561 175.571H174.986L215.336 72.1429V174.143H199.652V175.571H241V174.143H229.594V69.8571H241V68.4286H214.623L180.832 155.143L146.756 68.4286H119.238V69.8571H130.645V174.143H119.238Z" fill="black"/>
</svg>
